<?xml version="1.0" encoding="UTF-8" standalone="no"?><!DOCTYPE svg PUBLIC "-//W3C//DTD SVG 1.1//EN" "http://www.w3.org/Graphics/SVG/1.1/DTD/svg11.dtd"><svg width="100%" height="100%" viewBox="0 0 3334 3334" version="1.1" xmlns="http://www.w3.org/2000/svg" xmlns:xlink="http://www.w3.org/1999/xlink" xml:space="preserve" xmlns:serif="http://www.serif.com/" style="fill-rule:evenodd;clip-rule:evenodd;stroke-linejoin:round;stroke-miterlimit:2;"><g id="SVGRepo_iconCarrier"><path d="M577.8,1000l2000,0c36.8,0 66.667,-29.8 66.667,-66.667c0,-36.867 -29.867,-66.667 -66.667,-66.667l-2000,0c-36.8,0 -66.667,29.8 -66.667,66.667c0,36.867 29.8,66.667 66.667,66.667Z" style="fill:#f29325;fill-rule:nonzero;"/><path d="M577.8,2466.667l2000,0c36.8,0 66.667,-29.8 66.667,-66.667c0,-36.867 -29.867,-66.667 -66.667,-66.667l-2000,0c-36.8,0 -66.667,29.8 -66.667,66.667c0,36.867 29.8,66.667 66.667,66.667Z" style="fill:#f29325;fill-rule:nonzero;"/><path d="M577.8,1733.333l2000,0c36.8,0 66.667,-29.8 66.667,-66.667c0,-36.867 -29.867,-66.667 -66.667,-66.667l-2000,0c-36.8,0 -66.667,29.8 -66.667,66.667c0,36.867 29.8,66.667 66.667,66.667Z" style="fill:#f29325;fill-rule:nonzero;"/></g></svg>